# xmcd
#
# Track frame offsets: 
#        150
#        18046
#        31231
#        53608
#        72161
#        87009
#        106787
#        122286
#        138129
#        152903
#
# Disc length: 2202 seconds
#
# Revision: 0
# Processed by: cddbd v1.5.2PL0 Copyright (c) Steve Scherf et al.
# Submitted via: ExactAudioCopy v1.0b3
#
DISCID=6708980a
DTITLE=Frank White - The Cat
DYEAR=2010
DGENRE=Blues
TTITLE0=Who's Been Talking?
TTITLE1=Just a Little Bit
TTITLE2=Mess of Blues
TTITLE3=Jealous Heart
TTITLE4=Bye Bye Johnny
TTITLE5=You Send Me
TTITLE6=I'm So Lonesome I Could Cry
TTITLE7=Love Letters
TTITLE8=Lonely Street
TTITLE9=The Cat
EXTD=
EXTT0=
EXTT1=
EXTT2=
EXTT3=
EXTT4=
EXTT5=
EXTT6=
EXTT7=
EXTT8=
EXTT9=
PLAYORDER=
